<svg width="776" height="248" viewBox="0 0 776 248" fill="none" xmlns="http://www.w3.org/2000/svg">
<path d="M3 1H775" stroke="#E7EBEC"/>
<path d="M1 56L775 56.0001" stroke="#E7EBEC"/>
<path d="M1 111L775 111" stroke="#E7EBEC"/>
<path d="M1 166L775 166" stroke="#E7EBEC"/>
<path d="M5 221H775" stroke="#E7EBEC"/>
<path d="M1 191.993C5.7027 192.159 17.0541 189.593 24.8378 177.994C34.5676 163.495 49.1622 129.498 73.4865 130.498C97.8108 131.498 106.081 157.995 132.351 165.995C158.622 173.994 161.054 150.996 165.919 134.497C170.784 117.999 181.486 67.0033 185.865 52.0046C190.243 37.0059 197.541 8.50835 213.108 8.00839C228.676 7.50843 239.865 29.5065 241.811 33.0062C243.757 36.5059 253.486 60.5038 263.703 72.5027C273.919 84.5017 291.919 76.5024 303.595 89.0013C315.27 101.5 332.784 133.497 355.162 130.498C377.541 127.498 384.838 115.499 388.73 111.499C392.622 107.5 408.189 90.0012 426.676 94.5008C445.162 99.0004 450.514 110.999 453.919 116.499C457.324 121.998 470.459 153.996 492.351 154.996C514.243 155.995 525.919 114.999 529.324 105C532.73 95.0008 540.514 71.5028 551.216 61.5037C561.919 51.5045 570.676 62.5036 585.757 51.0046C600.838 39.5056 605.703 27.5066 622.243 22.0071C638.784 16.5076 650.459 24.0069 657.27 33.0061C664.081 42.0054 675.27 65.0034 686.459 75.0025C697.649 85.0016 707.865 78.5022 713.703 84.5017C719.541 90.5012 727.324 96.5006 739.486 140.497C751.649 184.493 762.838 190.992 775 191.992" stroke="#4BA8A8" stroke-width="2"/>
<path d="M1 212.189C6.02387 212.022 17.5302 209.789 23.3643 202.189C30.657 192.689 43.2977 172.689 53.9937 165.689C64.6897 158.689 72.4686 165.189 84.1369 157.189C95.8053 149.189 106.501 129.689 110.391 121.689C114.28 113.689 121.087 101.189 134.214 95.689C147.34 90.189 150.258 98.689 163.871 86.189C177.484 73.689 186.235 54.189 201.307 49.689C216.378 45.189 226.588 50.189 232.908 58.689C239.229 67.189 249.925 89.689 256.731 100.189C263.538 110.689 268.399 118.689 282.499 120.189C296.598 121.689 311.67 112.689 318.962 108.189C326.255 103.689 345.216 92.189 360.774 100.189C376.332 108.189 382.652 132.689 386.541 144.689C390.431 156.689 399.668 200.689 426.408 203.189C453.148 205.689 465.303 178.189 500.308 184.189C535.313 190.189 529.479 206.189 566.915 206.689C604.35 207.189 595.113 176.189 631.09 170.189C667.068 164.189 673.388 126.689 703.531 127.689C733.675 128.689 733.675 162.189 775 165.189" stroke="#F8B400" stroke-width="2"/>
<circle cx="744.5" cy="154.5" r="4.5" fill="#F8B400" stroke="white" stroke-width="2"/>
<circle cx="681.5" cy="135.5" r="4.5" fill="#F8B400" stroke="white" stroke-width="2"/>
<circle cx="605.5" cy="184.5" r="4.5" fill="#F8B400" stroke="white" stroke-width="2"/>
<circle cx="522.5" cy="190.5" r="4.5" fill="#F8B400" stroke="white" stroke-width="2"/>
<circle cx="438.5" cy="202.5" r="4.5" fill="#F8B400" stroke="white" stroke-width="2"/>
<circle cx="358.5" cy="97.5" r="4.5" fill="#F8B400" stroke="white" stroke-width="2"/>
<circle cx="277.5" cy="117.5" r="4.5" fill="#F8B400" stroke="white" stroke-width="2"/>
<circle cx="197.5" cy="53.5" r="4.5" fill="#F8B400" stroke="white" stroke-width="2"/>
<circle cx="116.5" cy="112.5" r="4.5" fill="#F8B400" stroke="white" stroke-width="2"/>
<circle cx="31.5" cy="192.5" r="4.5" fill="#F8B400" stroke="white" stroke-width="2"/>
<circle cx="30.5" cy="170.5" r="4.5" fill="#4BA8A8" stroke="white" stroke-width="2"/>
<circle cx="115.5" cy="156.5" r="4.5" fill="#4BA8A8" stroke="white" stroke-width="2"/>
<circle cx="229.5" cy="15.5" r="4.5" fill="#4BA8A8" stroke="white" stroke-width="2"/>
<circle cx="278.5" cy="79.5" r="4.5" fill="#4BA8A8" stroke="white" stroke-width="2"/>
<circle cx="358.5" cy="129.5" r="4.5" fill="#4BA8A8" stroke="white" stroke-width="2"/>
<circle cx="438.5" cy="98.5" r="4.5" fill="#4BA8A8" stroke="white" stroke-width="2"/>
<circle cx="521.5" cy="126.5" r="4.5" fill="#4BA8A8" stroke="white" stroke-width="2"/>
<circle cx="596.5" cy="42.5" r="4.5" fill="#4BA8A8" stroke="white" stroke-width="2"/>
<circle cx="678.5" cy="65.5" r="4.5" fill="#4BA8A8" stroke="white" stroke-width="2"/>
<circle cx="737.5" cy="133.5" r="4.5" fill="#4BA8A8" stroke="white" stroke-width="2"/>
</svg>
