<svg width="743" height="16" viewBox="0 0 743 16" fill="none" xmlns="http://www.w3.org/2000/svg">
<path d="M0.888 12V3.6H2.064L5.088 9.456L8.088 3.6H9.276V12H8.268V5.4L5.46 10.8H4.704L1.896 5.412V12H0.888ZM12.9682 12.144C12.4722 12.144 12.0602 12.06 11.7322 11.892C11.4042 11.724 11.1602 11.5 11.0002 11.22C10.8402 10.94 10.7602 10.636 10.7602 10.308C10.7602 9.7 10.9922 9.232 11.4562 8.904C11.9202 8.576 12.5522 8.412 13.3522 8.412H14.9602V8.34C14.9602 7.82 14.8242 7.428 14.5522 7.164C14.2802 6.892 13.9162 6.756 13.4602 6.756C13.0682 6.756 12.7282 6.856 12.4402 7.056C12.1602 7.248 11.9842 7.532 11.9122 7.908H10.8802C10.9202 7.476 11.0642 7.112 11.3122 6.816C11.5682 6.52 11.8842 6.296 12.2602 6.144C12.6362 5.984 13.0362 5.904 13.4602 5.904C14.2922 5.904 14.9162 6.128 15.3322 6.576C15.7562 7.016 15.9682 7.604 15.9682 8.34V12H15.0682L15.0082 10.932C14.8402 11.268 14.5922 11.556 14.2642 11.796C13.9442 12.028 13.5122 12.144 12.9682 12.144ZM13.1242 11.292C13.5082 11.292 13.8362 11.192 14.1082 10.992C14.3882 10.792 14.6002 10.532 14.7442 10.212C14.8882 9.892 14.9602 9.556 14.9602 9.204V9.192H13.4362C12.8442 9.192 12.4242 9.296 12.1762 9.504C11.9362 9.704 11.8162 9.956 11.8162 10.26C11.8162 10.572 11.9282 10.824 12.1522 11.016C12.3842 11.2 12.7082 11.292 13.1242 11.292ZM17.9526 14.64L19.4286 11.424H19.0806L16.7166 6.048H17.8086L19.7766 10.68L21.8646 6.048H22.9086L19.0086 14.64H17.9526Z" fill="#768396"/>
<path d="M393.888 12V3.6H394.896L399.372 10.332V3.6H400.38V12H399.372L394.896 5.268V12H393.888ZM404.813 12.144C404.253 12.144 403.749 12.016 403.301 11.76C402.853 11.504 402.497 11.144 402.233 10.68C401.977 10.208 401.849 9.656 401.849 9.024C401.849 8.392 401.981 7.844 402.245 7.38C402.509 6.908 402.865 6.544 403.313 6.288C403.769 6.032 404.277 5.904 404.837 5.904C405.397 5.904 405.901 6.032 406.349 6.288C406.797 6.544 407.149 6.908 407.405 7.38C407.669 7.844 407.801 8.392 407.801 9.024C407.801 9.656 407.669 10.208 407.405 10.68C407.141 11.144 406.781 11.504 406.325 11.76C405.877 12.016 405.373 12.144 404.813 12.144ZM404.813 11.28C405.157 11.28 405.477 11.196 405.773 11.028C406.069 10.86 406.309 10.608 406.493 10.272C406.677 9.936 406.769 9.52 406.769 9.024C406.769 8.528 406.677 8.112 406.493 7.776C406.317 7.44 406.081 7.188 405.785 7.02C405.489 6.852 405.173 6.768 404.837 6.768C404.493 6.768 404.173 6.852 403.877 7.02C403.581 7.188 403.341 7.44 403.157 7.776C402.973 8.112 402.881 8.528 402.881 9.024C402.881 9.52 402.973 9.936 403.157 10.272C403.341 10.608 403.577 10.86 403.865 11.028C404.161 11.196 404.477 11.28 404.813 11.28ZM410.614 12L408.358 6.048H409.414L411.202 11.028L413.002 6.048H414.034L411.778 12H410.614Z" fill="#768396"/>
<path d="M68.76 12.144C68 12.144 67.404 11.932 66.972 11.508C66.54 11.084 66.324 10.496 66.324 9.744H67.344C67.344 10.168 67.448 10.524 67.656 10.812C67.864 11.1 68.228 11.244 68.748 11.244C69.252 11.244 69.6 11.104 69.792 10.824C69.992 10.544 70.092 10.196 70.092 9.78V3.6H71.1V9.78C71.1 10.524 70.892 11.104 70.476 11.52C70.068 11.936 69.496 12.144 68.76 12.144ZM74.9883 12.144C74.2843 12.144 73.7243 11.932 73.3083 11.508C72.8923 11.076 72.6843 10.416 72.6843 9.528V6.048H73.6923V9.42C73.6923 10.66 74.2003 11.28 75.2163 11.28C75.7363 11.28 76.1643 11.096 76.5003 10.728C76.8443 10.352 77.0163 9.82 77.0163 9.132V6.048H78.0243V12H77.1123L77.0403 10.932C76.8563 11.308 76.5803 11.604 76.2123 11.82C75.8523 12.036 75.4443 12.144 74.9883 12.144ZM79.6835 12V6.048H80.5955L80.6555 7.116C80.8475 6.74 81.1235 6.444 81.4835 6.228C81.8435 6.012 82.2515 5.904 82.7075 5.904C83.4115 5.904 83.9715 6.12 84.3875 6.552C84.8115 6.976 85.0235 7.632 85.0235 8.52V12H84.0155V8.628C84.0155 7.388 83.5035 6.768 82.4795 6.768C81.9675 6.768 81.5395 6.956 81.1955 7.332C80.8595 7.7 80.6915 8.228 80.6915 8.916V12H79.6835Z" fill="#768396"/>
<path d="M459.888 12V3.6H462.468C463.948 3.6 465.036 3.976 465.732 4.728C466.436 5.48 466.788 6.512 466.788 7.824C466.788 9.112 466.436 10.132 465.732 10.884C465.036 11.628 463.948 12 462.468 12H459.888ZM460.896 11.16H462.444C463.26 11.16 463.908 11.028 464.388 10.764C464.876 10.492 465.224 10.108 465.432 9.612C465.64 9.108 465.744 8.512 465.744 7.824C465.744 7.12 465.64 6.516 465.432 6.012C465.224 5.508 464.876 5.12 464.388 4.848C463.908 4.576 463.26 4.44 462.444 4.44H460.896V11.16ZM470.859 12.144C470.291 12.144 469.787 12.016 469.347 11.76C468.907 11.496 468.559 11.132 468.303 10.668C468.055 10.204 467.931 9.656 467.931 9.024C467.931 8.4 468.055 7.856 468.303 7.392C468.551 6.92 468.895 6.556 469.335 6.3C469.783 6.036 470.299 5.904 470.883 5.904C471.459 5.904 471.955 6.036 472.371 6.3C472.795 6.556 473.119 6.896 473.343 7.32C473.567 7.744 473.679 8.2 473.679 8.688C473.679 8.776 473.675 8.864 473.667 8.952C473.667 9.04 473.667 9.14 473.667 9.252H468.927C468.951 9.708 469.055 10.088 469.239 10.392C469.431 10.688 469.667 10.912 469.947 11.064C470.235 11.216 470.539 11.292 470.859 11.292C471.275 11.292 471.623 11.196 471.903 11.004C472.183 10.812 472.387 10.552 472.515 10.224H473.511C473.351 10.776 473.043 11.236 472.587 11.604C472.139 11.964 471.563 12.144 470.859 12.144ZM470.859 6.756C470.379 6.756 469.951 6.904 469.575 7.2C469.207 7.488 468.995 7.912 468.939 8.472H472.683C472.659 7.936 472.475 7.516 472.131 7.212C471.787 6.908 471.363 6.756 470.859 6.756ZM477.752 12.144C477.184 12.144 476.672 12.016 476.216 11.76C475.768 11.496 475.412 11.132 475.148 10.668C474.892 10.196 474.764 9.648 474.764 9.024C474.764 8.4 474.892 7.856 475.148 7.392C475.412 6.92 475.768 6.556 476.216 6.3C476.672 6.036 477.184 5.904 477.752 5.904C478.456 5.904 479.048 6.088 479.528 6.456C480.016 6.824 480.324 7.316 480.452 7.932H479.42C479.34 7.564 479.144 7.28 478.832 7.08C478.52 6.872 478.156 6.768 477.74 6.768C477.404 6.768 477.088 6.852 476.792 7.02C476.496 7.188 476.256 7.44 476.072 7.776C475.888 8.112 475.796 8.528 475.796 9.024C475.796 9.52 475.888 9.936 476.072 10.272C476.256 10.608 476.496 10.864 476.792 11.04C477.088 11.208 477.404 11.292 477.74 11.292C478.156 11.292 478.52 11.192 478.832 10.992C479.144 10.784 479.34 10.492 479.42 10.116H480.452C480.332 10.716 480.028 11.204 479.54 11.58C479.052 11.956 478.456 12.144 477.752 12.144Z" fill="#768396"/>
<path d="M136.76 12.144C136 12.144 135.404 11.932 134.972 11.508C134.54 11.084 134.324 10.496 134.324 9.744H135.344C135.344 10.168 135.448 10.524 135.656 10.812C135.864 11.1 136.228 11.244 136.748 11.244C137.252 11.244 137.6 11.104 137.792 10.824C137.992 10.544 138.092 10.196 138.092 9.78V3.6H139.1V9.78C139.1 10.524 138.892 11.104 138.476 11.52C138.068 11.936 137.496 12.144 136.76 12.144ZM142.988 12.144C142.284 12.144 141.724 11.932 141.308 11.508C140.892 11.076 140.684 10.416 140.684 9.528V6.048H141.692V9.42C141.692 10.66 142.2 11.28 143.216 11.28C143.736 11.28 144.164 11.096 144.5 10.728C144.844 10.352 145.016 9.82 145.016 9.132V6.048H146.024V12H145.112L145.04 10.932C144.856 11.308 144.58 11.604 144.212 11.82C143.852 12.036 143.444 12.144 142.988 12.144ZM147.683 12V3.36H148.691V12H147.683Z" fill="#768396"/>
<path d="M529.76 12.144C529 12.144 528.404 11.932 527.972 11.508C527.54 11.084 527.324 10.496 527.324 9.744H528.344C528.344 10.168 528.448 10.524 528.656 10.812C528.864 11.1 529.228 11.244 529.748 11.244C530.252 11.244 530.6 11.104 530.792 10.824C530.992 10.544 531.092 10.196 531.092 9.78V3.6H532.1V9.78C532.1 10.524 531.892 11.104 531.476 11.52C531.068 11.936 530.496 12.144 529.76 12.144ZM535.796 12.144C535.3 12.144 534.888 12.06 534.56 11.892C534.232 11.724 533.988 11.5 533.828 11.22C533.668 10.94 533.588 10.636 533.588 10.308C533.588 9.7 533.82 9.232 534.284 8.904C534.748 8.576 535.38 8.412 536.18 8.412H537.788V8.34C537.788 7.82 537.652 7.428 537.38 7.164C537.108 6.892 536.744 6.756 536.288 6.756C535.896 6.756 535.556 6.856 535.268 7.056C534.988 7.248 534.812 7.532 534.74 7.908H533.708C533.748 7.476 533.892 7.112 534.14 6.816C534.396 6.52 534.712 6.296 535.088 6.144C535.464 5.984 535.864 5.904 536.288 5.904C537.12 5.904 537.744 6.128 538.16 6.576C538.584 7.016 538.796 7.604 538.796 8.34V12H537.896L537.836 10.932C537.668 11.268 537.42 11.556 537.092 11.796C536.772 12.028 536.34 12.144 535.796 12.144ZM535.952 11.292C536.336 11.292 536.664 11.192 536.936 10.992C537.216 10.792 537.428 10.532 537.572 10.212C537.716 9.892 537.788 9.556 537.788 9.204V9.192H536.264C535.672 9.192 535.252 9.296 535.004 9.504C534.764 9.704 534.644 9.956 534.644 10.26C534.644 10.572 534.756 10.824 534.98 11.016C535.212 11.2 535.536 11.292 535.952 11.292ZM540.308 12V6.048H541.22L541.28 7.116C541.472 6.74 541.748 6.444 542.108 6.228C542.468 6.012 542.876 5.904 543.332 5.904C544.036 5.904 544.596 6.12 545.012 6.552C545.436 6.976 545.648 7.632 545.648 8.52V12H544.64V8.628C544.64 7.388 544.128 6.768 543.104 6.768C542.592 6.768 542.164 6.956 541.82 7.332C541.484 7.7 541.316 8.228 541.316 8.916V12H540.308Z" fill="#768396"/>
<path d="M198.36 12L201.456 3.6H202.524L205.608 12H204.54L203.772 9.84H200.196L199.416 12H198.36ZM200.496 9.024H203.472L201.984 4.872L200.496 9.024ZM208.84 12.144C208.136 12.144 207.576 11.932 207.16 11.508C206.744 11.076 206.536 10.416 206.536 9.528V6.048H207.544V9.42C207.544 10.66 208.052 11.28 209.068 11.28C209.588 11.28 210.016 11.096 210.352 10.728C210.696 10.352 210.868 9.82 210.868 9.132V6.048H211.876V12H210.964L210.892 10.932C210.708 11.308 210.432 11.604 210.064 11.82C209.704 12.036 209.296 12.144 208.84 12.144ZM215.887 10.128C215.551 10.128 215.243 10.084 214.963 9.996L214.363 10.56C214.451 10.624 214.559 10.68 214.687 10.728C214.823 10.768 215.015 10.808 215.263 10.848C215.511 10.88 215.859 10.916 216.307 10.956C217.107 11.012 217.679 11.196 218.023 11.508C218.367 11.82 218.539 12.228 218.539 12.732C218.539 13.076 218.443 13.404 218.251 13.716C218.067 14.028 217.779 14.284 217.387 14.484C217.003 14.684 216.507 14.784 215.899 14.784C215.363 14.784 214.887 14.712 214.471 14.568C214.055 14.432 213.731 14.22 213.499 13.932C213.267 13.652 213.151 13.296 213.151 12.864C213.151 12.64 213.211 12.396 213.331 12.132C213.451 11.876 213.675 11.632 214.003 11.4C213.827 11.328 213.675 11.252 213.547 11.172C213.427 11.084 213.315 10.988 213.211 10.884V10.608L214.231 9.6C213.759 9.2 213.523 8.672 213.523 8.016C213.523 7.624 213.615 7.268 213.799 6.948C213.983 6.628 214.251 6.376 214.603 6.192C214.955 6 215.383 5.904 215.887 5.904C216.231 5.904 216.543 5.952 216.823 6.048H219.019V6.804L217.903 6.852C218.135 7.188 218.251 7.576 218.251 8.016C218.251 8.408 218.155 8.764 217.963 9.084C217.779 9.404 217.511 9.66 217.159 9.852C216.815 10.036 216.391 10.128 215.887 10.128ZM215.887 9.3C216.311 9.3 216.647 9.192 216.895 8.976C217.151 8.752 217.279 8.432 217.279 8.016C217.279 7.608 217.151 7.296 216.895 7.08C216.647 6.856 216.311 6.744 215.887 6.744C215.455 6.744 215.111 6.856 214.855 7.08C214.607 7.296 214.483 7.608 214.483 8.016C214.483 8.432 214.607 8.752 214.855 8.976C215.111 9.192 215.455 9.3 215.887 9.3ZM214.135 12.768C214.135 13.168 214.303 13.464 214.639 13.656C214.975 13.856 215.395 13.956 215.899 13.956C216.395 13.956 216.791 13.848 217.087 13.632C217.391 13.416 217.543 13.128 217.543 12.768C217.543 12.512 217.439 12.288 217.231 12.096C217.023 11.912 216.639 11.804 216.079 11.772C215.639 11.74 215.259 11.7 214.939 11.652C214.611 11.828 214.395 12.016 214.291 12.216C214.187 12.424 214.135 12.608 214.135 12.768Z" fill="#768396"/>
<path d="M591.888 12V3.6H597V4.428H592.896V7.38H596.388V8.196H592.896V12H591.888ZM600.656 12.144C600.088 12.144 599.584 12.016 599.144 11.76C598.704 11.496 598.356 11.132 598.1 10.668C597.852 10.204 597.728 9.656 597.728 9.024C597.728 8.4 597.852 7.856 598.1 7.392C598.348 6.92 598.692 6.556 599.132 6.3C599.58 6.036 600.096 5.904 600.68 5.904C601.256 5.904 601.752 6.036 602.168 6.3C602.592 6.556 602.916 6.896 603.14 7.32C603.364 7.744 603.476 8.2 603.476 8.688C603.476 8.776 603.472 8.864 603.464 8.952C603.464 9.04 603.464 9.14 603.464 9.252H598.724C598.748 9.708 598.852 10.088 599.036 10.392C599.228 10.688 599.464 10.912 599.744 11.064C600.032 11.216 600.336 11.292 600.656 11.292C601.072 11.292 601.42 11.196 601.7 11.004C601.98 10.812 602.184 10.552 602.312 10.224H603.308C603.148 10.776 602.84 11.236 602.384 11.604C601.936 11.964 601.36 12.144 600.656 12.144ZM600.656 6.756C600.176 6.756 599.748 6.904 599.372 7.2C599.004 7.488 598.792 7.912 598.736 8.472H602.48C602.456 7.936 602.272 7.516 601.928 7.212C601.584 6.908 601.16 6.756 600.656 6.756ZM607.992 12.144C607.504 12.144 607.068 12.044 606.684 11.844C606.308 11.644 606.02 11.364 605.82 11.004L605.724 12H604.812V3.36H605.82V7.032C606.012 6.744 606.284 6.484 606.636 6.252C606.996 6.02 607.452 5.904 608.004 5.904C608.596 5.904 609.112 6.04 609.552 6.312C609.992 6.584 610.332 6.956 610.572 7.428C610.82 7.9 610.944 8.436 610.944 9.036C610.944 9.636 610.82 10.172 610.572 10.644C610.332 11.108 609.988 11.476 609.54 11.748C609.1 12.012 608.584 12.144 607.992 12.144ZM607.884 11.268C608.284 11.268 608.636 11.176 608.94 10.992C609.244 10.8 609.484 10.536 609.66 10.2C609.836 9.864 609.924 9.472 609.924 9.024C609.924 8.576 609.836 8.184 609.66 7.848C609.484 7.512 609.244 7.252 608.94 7.068C608.636 6.876 608.284 6.78 607.884 6.78C607.484 6.78 607.132 6.876 606.828 7.068C606.524 7.252 606.284 7.512 606.108 7.848C605.932 8.184 605.844 8.576 605.844 9.024C605.844 9.472 605.932 9.864 606.108 10.2C606.284 10.536 606.524 10.8 606.828 10.992C607.132 11.176 607.484 11.268 607.884 11.268Z" fill="#768396"/>
<path d="M267.564 12.144C266.948 12.144 266.412 12.032 265.956 11.808C265.5 11.584 265.148 11.272 264.9 10.872C264.652 10.472 264.528 10.008 264.528 9.48H265.584C265.584 9.808 265.66 10.112 265.812 10.392C265.964 10.664 266.184 10.884 266.472 11.052C266.768 11.212 267.132 11.292 267.564 11.292C268.132 11.292 268.572 11.156 268.884 10.884C269.196 10.612 269.352 10.272 269.352 9.864C269.352 9.528 269.28 9.26 269.136 9.06C268.992 8.852 268.796 8.684 268.548 8.556C268.308 8.428 268.028 8.316 267.708 8.22C267.396 8.124 267.068 8.016 266.724 7.896C266.076 7.672 265.596 7.396 265.284 7.068C264.972 6.732 264.816 6.296 264.816 5.76C264.808 5.312 264.912 4.916 265.128 4.572C265.344 4.22 265.648 3.948 266.04 3.756C266.44 3.556 266.912 3.456 267.456 3.456C267.992 3.456 268.456 3.556 268.848 3.756C269.248 3.956 269.556 4.232 269.772 4.584C269.996 4.936 270.112 5.336 270.12 5.784H269.064C269.064 5.552 269.004 5.324 268.884 5.1C268.764 4.868 268.58 4.68 268.332 4.536C268.092 4.392 267.788 4.32 267.42 4.32C266.964 4.312 266.588 4.428 266.292 4.668C266.004 4.908 265.86 5.24 265.86 5.664C265.86 6.024 265.96 6.3 266.16 6.492C266.368 6.684 266.656 6.844 267.024 6.972C267.392 7.092 267.816 7.232 268.296 7.392C268.696 7.536 269.056 7.704 269.376 7.896C269.696 8.088 269.944 8.336 270.12 8.64C270.304 8.944 270.396 9.332 270.396 9.804C270.396 10.204 270.292 10.584 270.084 10.944C269.876 11.296 269.56 11.584 269.136 11.808C268.72 12.032 268.196 12.144 267.564 12.144ZM274.442 12.144C273.874 12.144 273.37 12.016 272.93 11.76C272.49 11.496 272.142 11.132 271.886 10.668C271.638 10.204 271.514 9.656 271.514 9.024C271.514 8.4 271.638 7.856 271.886 7.392C272.134 6.92 272.478 6.556 272.918 6.3C273.366 6.036 273.882 5.904 274.465 5.904C275.042 5.904 275.538 6.036 275.954 6.3C276.378 6.556 276.702 6.896 276.926 7.32C277.15 7.744 277.262 8.2 277.262 8.688C277.262 8.776 277.258 8.864 277.25 8.952C277.25 9.04 277.25 9.14 277.25 9.252H272.51C272.534 9.708 272.638 10.088 272.822 10.392C273.014 10.688 273.25 10.912 273.53 11.064C273.818 11.216 274.122 11.292 274.442 11.292C274.858 11.292 275.206 11.196 275.486 11.004C275.766 10.812 275.97 10.552 276.098 10.224H277.094C276.934 10.776 276.626 11.236 276.17 11.604C275.722 11.964 275.146 12.144 274.442 12.144ZM274.442 6.756C273.962 6.756 273.534 6.904 273.158 7.2C272.79 7.488 272.578 7.912 272.521 8.472H276.266C276.242 7.936 276.058 7.516 275.714 7.212C275.37 6.908 274.946 6.756 274.442 6.756ZM278.598 14.64V6.048H279.51L279.606 7.032C279.798 6.744 280.07 6.484 280.422 6.252C280.782 6.02 281.238 5.904 281.79 5.904C282.382 5.904 282.898 6.04 283.338 6.312C283.778 6.584 284.118 6.956 284.358 7.428C284.606 7.9 284.73 8.436 284.73 9.036C284.73 9.636 284.606 10.172 284.358 10.644C284.118 11.108 283.774 11.476 283.326 11.748C282.886 12.012 282.37 12.144 281.778 12.144C281.29 12.144 280.854 12.044 280.47 11.844C280.094 11.644 279.806 11.364 279.606 11.004V14.64H278.598ZM281.67 11.268C282.07 11.268 282.422 11.176 282.726 10.992C283.03 10.8 283.27 10.536 283.446 10.2C283.622 9.864 283.71 9.472 283.71 9.024C283.71 8.576 283.622 8.184 283.446 7.848C283.27 7.512 283.03 7.252 282.726 7.068C282.422 6.876 282.07 6.78 281.67 6.78C281.27 6.78 280.918 6.876 280.614 7.068C280.31 7.252 280.07 7.512 279.894 7.848C279.718 8.184 279.63 8.576 279.63 9.024C279.63 9.472 279.718 9.864 279.894 10.2C280.07 10.536 280.31 10.8 280.614 10.992C280.918 11.176 281.27 11.268 281.67 11.268Z" fill="#768396"/>
<path d="M657.888 12V3.6H659.064L662.088 9.456L665.088 3.6H666.276V12H665.268V5.4L662.46 10.8H661.704L658.896 5.412V12H657.888ZM669.968 12.144C669.472 12.144 669.06 12.06 668.732 11.892C668.404 11.724 668.16 11.5 668 11.22C667.84 10.94 667.76 10.636 667.76 10.308C667.76 9.7 667.992 9.232 668.456 8.904C668.92 8.576 669.552 8.412 670.352 8.412H671.96V8.34C671.96 7.82 671.824 7.428 671.552 7.164C671.28 6.892 670.916 6.756 670.46 6.756C670.068 6.756 669.728 6.856 669.44 7.056C669.16 7.248 668.984 7.532 668.912 7.908H667.88C667.92 7.476 668.064 7.112 668.312 6.816C668.568 6.52 668.884 6.296 669.26 6.144C669.636 5.984 670.036 5.904 670.46 5.904C671.292 5.904 671.916 6.128 672.332 6.576C672.756 7.016 672.968 7.604 672.968 8.34V12H672.068L672.008 10.932C671.84 11.268 671.592 11.556 671.264 11.796C670.944 12.028 670.512 12.144 669.968 12.144ZM670.124 11.292C670.508 11.292 670.836 11.192 671.108 10.992C671.388 10.792 671.6 10.532 671.744 10.212C671.888 9.892 671.96 9.556 671.96 9.204V9.192H670.436C669.844 9.192 669.424 9.296 669.176 9.504C668.936 9.704 668.816 9.956 668.816 10.26C668.816 10.572 668.928 10.824 669.152 11.016C669.384 11.2 669.708 11.292 670.124 11.292ZM674.48 12V6.048H675.392L675.476 7.188C675.66 6.796 675.94 6.484 676.316 6.252C676.692 6.02 677.156 5.904 677.708 5.904V6.96H677.432C677.08 6.96 676.756 7.024 676.46 7.152C676.164 7.272 675.928 7.48 675.752 7.776C675.576 8.072 675.488 8.48 675.488 9V12H674.48Z" fill="#768396"/>
<path d="M334.704 12.144C333.88 12.144 333.156 11.964 332.532 11.604C331.916 11.236 331.432 10.724 331.08 10.068C330.736 9.412 330.564 8.656 330.564 7.8C330.564 6.944 330.736 6.192 331.08 5.544C331.432 4.888 331.916 4.376 332.532 4.008C333.156 3.64 333.88 3.456 334.704 3.456C335.536 3.456 336.26 3.64 336.876 4.008C337.5 4.376 337.984 4.888 338.328 5.544C338.672 6.192 338.844 6.944 338.844 7.8C338.844 8.656 338.672 9.412 338.328 10.068C337.984 10.724 337.5 11.236 336.876 11.604C336.26 11.964 335.536 12.144 334.704 12.144ZM334.704 11.256C335.32 11.256 335.86 11.12 336.324 10.848C336.796 10.568 337.16 10.172 337.416 9.66C337.68 9.14 337.812 8.52 337.812 7.8C337.812 7.08 337.68 6.464 337.416 5.952C337.16 5.44 336.796 5.048 336.324 4.776C335.86 4.496 335.32 4.356 334.704 4.356C334.088 4.356 333.544 4.496 333.072 4.776C332.608 5.048 332.244 5.44 331.98 5.952C331.724 6.464 331.596 7.08 331.596 7.8C331.596 8.52 331.724 9.14 331.98 9.66C332.244 10.172 332.608 10.568 333.072 10.848C333.544 11.12 334.088 11.256 334.704 11.256ZM342.974 12.144C342.406 12.144 341.894 12.016 341.438 11.76C340.99 11.496 340.634 11.132 340.37 10.668C340.114 10.196 339.986 9.648 339.986 9.024C339.986 8.4 340.114 7.856 340.37 7.392C340.634 6.92 340.99 6.556 341.438 6.3C341.894 6.036 342.406 5.904 342.974 5.904C343.678 5.904 344.27 6.088 344.75 6.456C345.238 6.824 345.546 7.316 345.674 7.932H344.642C344.562 7.564 344.366 7.28 344.054 7.08C343.742 6.872 343.378 6.768 342.962 6.768C342.626 6.768 342.31 6.852 342.014 7.02C341.718 7.188 341.478 7.44 341.294 7.776C341.11 8.112 341.018 8.528 341.018 9.024C341.018 9.52 341.11 9.936 341.294 10.272C341.478 10.608 341.718 10.864 342.014 11.04C342.31 11.208 342.626 11.292 342.962 11.292C343.378 11.292 343.742 11.192 344.054 10.992C344.366 10.784 344.562 10.492 344.642 10.116H345.674C345.554 10.716 345.25 11.204 344.762 11.58C344.274 11.956 343.678 12.144 342.974 12.144ZM349.27 12C348.726 12 348.298 11.868 347.986 11.604C347.674 11.34 347.518 10.864 347.518 10.176V6.9H346.486V6.048H347.518L347.65 4.62H348.526V6.048H350.278V6.9H348.526V10.176C348.526 10.552 348.602 10.808 348.754 10.944C348.906 11.072 349.174 11.136 349.558 11.136H350.182V12H349.27Z" fill="#768396"/>
<path d="M723.36 12L726.456 3.6H727.524L730.608 12H729.54L728.772 9.84H725.196L724.416 12H723.36ZM725.496 9.024H728.472L726.984 4.872L725.496 9.024ZM731.797 14.64V6.048H732.709L732.805 7.032C732.997 6.744 733.269 6.484 733.621 6.252C733.981 6.02 734.437 5.904 734.989 5.904C735.581 5.904 736.097 6.04 736.537 6.312C736.977 6.584 737.317 6.956 737.557 7.428C737.805 7.9 737.929 8.436 737.929 9.036C737.929 9.636 737.805 10.172 737.557 10.644C737.317 11.108 736.973 11.476 736.525 11.748C736.085 12.012 735.569 12.144 734.977 12.144C734.489 12.144 734.053 12.044 733.669 11.844C733.293 11.644 733.005 11.364 732.805 11.004V14.64H731.797ZM734.869 11.268C735.269 11.268 735.621 11.176 735.925 10.992C736.229 10.8 736.469 10.536 736.645 10.2C736.821 9.864 736.909 9.472 736.909 9.024C736.909 8.576 736.821 8.184 736.645 7.848C736.469 7.512 736.229 7.252 735.925 7.068C735.621 6.876 735.269 6.78 734.869 6.78C734.469 6.78 734.117 6.876 733.813 7.068C733.509 7.252 733.269 7.512 733.093 7.848C732.917 8.184 732.829 8.576 732.829 9.024C732.829 9.472 732.917 9.864 733.093 10.2C733.269 10.536 733.509 10.8 733.813 10.992C734.117 11.176 734.469 11.268 734.869 11.268ZM739.332 12V6.048H740.244L740.328 7.188C740.512 6.796 740.792 6.484 741.168 6.252C741.544 6.02 742.008 5.904 742.56 5.904V6.96H742.284C741.932 6.96 741.608 7.024 741.312 7.152C741.016 7.272 740.78 7.48 740.604 7.776C740.428 8.072 740.34 8.48 740.34 9V12H739.332Z" fill="#768396"/>
</svg>
