<svg width="24" height="236" viewBox="0 0 24 236" fill="none" xmlns="http://www.w3.org/2000/svg">
<path d="M4.692 12V10.2H0.432V9.42L4.512 3.6H5.688V9.312H6.936V10.2H5.688V12H4.692ZM1.548 9.312H4.74V4.716L1.548 9.312ZM11.4296 12.144C10.6856 12.144 10.0416 11.964 9.49763 11.604C8.96163 11.236 8.54963 10.728 8.26163 10.08C7.97363 9.424 7.82963 8.664 7.82963 7.8C7.82963 6.936 7.97363 6.18 8.26163 5.532C8.54963 4.876 8.96163 4.368 9.49763 4.008C10.0416 3.64 10.6856 3.456 11.4296 3.456C12.1736 3.456 12.8136 3.64 13.3496 4.008C13.8856 4.368 14.2976 4.876 14.5856 5.532C14.8736 6.18 15.0176 6.936 15.0176 7.8C15.0176 8.664 14.8736 9.424 14.5856 10.08C14.2976 10.728 13.8856 11.236 13.3496 11.604C12.8136 11.964 12.1736 12.144 11.4296 12.144ZM11.4296 11.256C11.9176 11.256 12.3536 11.12 12.7376 10.848C13.1296 10.568 13.4336 10.172 13.6496 9.66C13.8736 9.14 13.9856 8.52 13.9856 7.8C13.9856 7.08 13.8736 6.464 13.6496 5.952C13.4336 5.44 13.1296 5.048 12.7376 4.776C12.3536 4.496 11.9176 4.356 11.4296 4.356C10.9336 4.356 10.4936 4.496 10.1096 4.776C9.72563 5.048 9.42163 5.44 9.19763 5.952C8.97363 6.464 8.86163 7.08 8.86163 7.8C8.86163 8.52 8.97363 9.14 9.19763 9.66C9.42163 10.172 9.72563 10.568 10.1096 10.848C10.4936 11.12 10.9336 11.256 11.4296 11.256ZM19.7499 12.144C19.0059 12.144 18.3619 11.964 17.8179 11.604C17.2819 11.236 16.8699 10.728 16.5819 10.08C16.2939 9.424 16.1499 8.664 16.1499 7.8C16.1499 6.936 16.2939 6.18 16.5819 5.532C16.8699 4.876 17.2819 4.368 17.8179 4.008C18.3619 3.64 19.0059 3.456 19.7499 3.456C20.4939 3.456 21.1339 3.64 21.6699 4.008C22.2059 4.368 22.6179 4.876 22.9059 5.532C23.1939 6.18 23.3379 6.936 23.3379 7.8C23.3379 8.664 23.1939 9.424 22.9059 10.08C22.6179 10.728 22.2059 11.236 21.6699 11.604C21.1339 11.964 20.4939 12.144 19.7499 12.144ZM19.7499 11.256C20.2379 11.256 20.6739 11.12 21.0579 10.848C21.4499 10.568 21.7539 10.172 21.9699 9.66C22.1939 9.14 22.3059 8.52 22.3059 7.8C22.3059 7.08 22.1939 6.464 21.9699 5.952C21.7539 5.44 21.4499 5.048 21.0579 4.776C20.6739 4.496 20.2379 4.356 19.7499 4.356C19.2539 4.356 18.8139 4.496 18.4299 4.776C18.0459 5.048 17.7419 5.44 17.5179 5.952C17.2939 6.464 17.1819 7.08 17.1819 7.8C17.1819 8.52 17.2939 9.14 17.5179 9.66C17.7419 10.172 18.0459 10.568 18.4299 10.848C18.8139 11.12 19.2539 11.256 19.7499 11.256Z" fill="#768396"/>
<path d="M3.504 67.144C2.968 67.144 2.484 67.048 2.052 66.856C1.62 66.656 1.272 66.36 1.008 65.968C0.752 65.576 0.616 65.088 0.6 64.504H1.62C1.628 64.984 1.796 65.4 2.124 65.752C2.452 66.096 2.912 66.268 3.504 66.268C4.096 66.268 4.54 66.104 4.836 65.776C5.14 65.448 5.292 65.052 5.292 64.588C5.292 64.196 5.196 63.876 5.004 63.628C4.82 63.38 4.568 63.196 4.248 63.076C3.936 62.956 3.592 62.896 3.216 62.896H2.592V62.044H3.216C3.76 62.044 4.184 61.92 4.488 61.672C4.8 61.424 4.956 61.076 4.956 60.628C4.956 60.252 4.832 59.944 4.584 59.704C4.344 59.456 3.984 59.332 3.504 59.332C3.04 59.332 2.668 59.472 2.388 59.752C2.108 60.024 1.952 60.368 1.92 60.784H0.9C0.924 60.328 1.044 59.924 1.26 59.572C1.484 59.22 1.788 58.948 2.172 58.756C2.556 58.556 3 58.456 3.504 58.456C4.048 58.456 4.5 58.552 4.86 58.744C5.228 58.936 5.504 59.192 5.688 59.512C5.88 59.832 5.976 60.184 5.976 60.568C5.976 60.992 5.86 61.38 5.628 61.732C5.396 62.076 5.048 62.308 4.584 62.428C5.08 62.532 5.492 62.768 5.82 63.136C6.148 63.504 6.312 63.988 6.312 64.588C6.312 65.052 6.204 65.48 5.988 65.872C5.78 66.256 5.468 66.564 5.052 66.796C4.636 67.028 4.12 67.144 3.504 67.144ZM11.2187 67.144C10.4747 67.144 9.83069 66.964 9.28669 66.604C8.75069 66.236 8.33869 65.728 8.05069 65.08C7.76269 64.424 7.61869 63.664 7.61869 62.8C7.61869 61.936 7.76269 61.18 8.05069 60.532C8.33869 59.876 8.75069 59.368 9.28669 59.008C9.83069 58.64 10.4747 58.456 11.2187 58.456C11.9627 58.456 12.6027 58.64 13.1387 59.008C13.6747 59.368 14.0867 59.876 14.3747 60.532C14.6627 61.18 14.8067 61.936 14.8067 62.8C14.8067 63.664 14.6627 64.424 14.3747 65.08C14.0867 65.728 13.6747 66.236 13.1387 66.604C12.6027 66.964 11.9627 67.144 11.2187 67.144ZM11.2187 66.256C11.7067 66.256 12.1427 66.12 12.5267 65.848C12.9187 65.568 13.2227 65.172 13.4387 64.66C13.6627 64.14 13.7747 63.52 13.7747 62.8C13.7747 62.08 13.6627 61.464 13.4387 60.952C13.2227 60.44 12.9187 60.048 12.5267 59.776C12.1427 59.496 11.7067 59.356 11.2187 59.356C10.7227 59.356 10.2827 59.496 9.89869 59.776C9.51469 60.048 9.21069 60.44 8.98669 60.952C8.76269 61.464 8.65069 62.08 8.65069 62.8C8.65069 63.52 8.76269 64.14 8.98669 64.66C9.21069 65.172 9.51469 65.568 9.89869 65.848C10.2827 66.12 10.7227 66.256 11.2187 66.256ZM19.539 67.144C18.795 67.144 18.151 66.964 17.607 66.604C17.071 66.236 16.659 65.728 16.371 65.08C16.083 64.424 15.939 63.664 15.939 62.8C15.939 61.936 16.083 61.18 16.371 60.532C16.659 59.876 17.071 59.368 17.607 59.008C18.151 58.64 18.795 58.456 19.539 58.456C20.283 58.456 20.923 58.64 21.459 59.008C21.995 59.368 22.407 59.876 22.695 60.532C22.983 61.18 23.127 61.936 23.127 62.8C23.127 63.664 22.983 64.424 22.695 65.08C22.407 65.728 21.995 66.236 21.459 66.604C20.923 66.964 20.283 67.144 19.539 67.144ZM19.539 66.256C20.027 66.256 20.463 66.12 20.847 65.848C21.239 65.568 21.543 65.172 21.759 64.66C21.983 64.14 22.095 63.52 22.095 62.8C22.095 62.08 21.983 61.464 21.759 60.952C21.543 60.44 21.239 60.048 20.847 59.776C20.463 59.496 20.027 59.356 19.539 59.356C19.043 59.356 18.603 59.496 18.219 59.776C17.835 60.048 17.531 60.44 17.307 60.952C17.083 61.464 16.971 62.08 16.971 62.8C16.971 63.52 17.083 64.14 17.307 64.66C17.531 65.172 17.835 65.568 18.219 65.848C18.603 66.12 19.043 66.256 19.539 66.256Z" fill="#768396"/>
<path d="M0.756 122V121.292C1.324 120.844 1.86 120.392 2.364 119.936C2.876 119.472 3.328 119.016 3.72 118.568C4.12 118.12 4.432 117.68 4.656 117.248C4.888 116.816 5.004 116.4 5.004 116C5.004 115.704 4.952 115.428 4.848 115.172C4.752 114.916 4.592 114.712 4.368 114.56C4.144 114.4 3.84 114.32 3.456 114.32C3.088 114.32 2.78 114.404 2.532 114.572C2.284 114.732 2.096 114.948 1.968 115.22C1.848 115.492 1.788 115.784 1.788 116.096H0.816C0.816 115.544 0.932 115.072 1.164 114.68C1.396 114.28 1.712 113.976 2.112 113.768C2.512 113.56 2.964 113.456 3.468 113.456C4.212 113.456 4.82 113.668 5.292 114.092C5.772 114.508 6.012 115.132 6.012 115.964C6.012 116.46 5.888 116.952 5.64 117.44C5.392 117.92 5.076 118.388 4.692 118.844C4.308 119.292 3.896 119.712 3.456 120.104C3.024 120.496 2.62 120.848 2.244 121.16H6.3V122H0.756ZM10.914 122.144C10.17 122.144 9.526 121.964 8.982 121.604C8.446 121.236 8.034 120.728 7.746 120.08C7.458 119.424 7.314 118.664 7.314 117.8C7.314 116.936 7.458 116.18 7.746 115.532C8.034 114.876 8.446 114.368 8.982 114.008C9.526 113.64 10.17 113.456 10.914 113.456C11.658 113.456 12.298 113.64 12.834 114.008C13.37 114.368 13.782 114.876 14.07 115.532C14.358 116.18 14.502 116.936 14.502 117.8C14.502 118.664 14.358 119.424 14.07 120.08C13.782 120.728 13.37 121.236 12.834 121.604C12.298 121.964 11.658 122.144 10.914 122.144ZM10.914 121.256C11.402 121.256 11.838 121.12 12.222 120.848C12.614 120.568 12.918 120.172 13.134 119.66C13.358 119.14 13.47 118.52 13.47 117.8C13.47 117.08 13.358 116.464 13.134 115.952C12.918 115.44 12.614 115.048 12.222 114.776C11.838 114.496 11.402 114.356 10.914 114.356C10.418 114.356 9.978 114.496 9.594 114.776C9.21 115.048 8.906 115.44 8.682 115.952C8.458 116.464 8.346 117.08 8.346 117.8C8.346 118.52 8.458 119.14 8.682 119.66C8.906 120.172 9.21 120.568 9.594 120.848C9.978 121.12 10.418 121.256 10.914 121.256ZM19.2343 122.144C18.4903 122.144 17.8463 121.964 17.3023 121.604C16.7663 121.236 16.3543 120.728 16.0663 120.08C15.7783 119.424 15.6343 118.664 15.6343 117.8C15.6343 116.936 15.7783 116.18 16.0663 115.532C16.3543 114.876 16.7663 114.368 17.3023 114.008C17.8463 113.64 18.4903 113.456 19.2343 113.456C19.9783 113.456 20.6183 113.64 21.1543 114.008C21.6903 114.368 22.1023 114.876 22.3903 115.532C22.6783 116.18 22.8223 116.936 22.8223 117.8C22.8223 118.664 22.6783 119.424 22.3903 120.08C22.1023 120.728 21.6903 121.236 21.1543 121.604C20.6183 121.964 19.9783 122.144 19.2343 122.144ZM19.2343 121.256C19.7223 121.256 20.1583 121.12 20.5423 120.848C20.9343 120.568 21.2383 120.172 21.4543 119.66C21.6783 119.14 21.7903 118.52 21.7903 117.8C21.7903 117.08 21.6783 116.464 21.4543 115.952C21.2383 115.44 20.9343 115.048 20.5423 114.776C20.1583 114.496 19.7223 114.356 19.2343 114.356C18.7383 114.356 18.2983 114.496 17.9143 114.776C17.5303 115.048 17.2263 115.44 17.0023 115.952C16.7783 116.464 16.6663 117.08 16.6663 117.8C16.6663 118.52 16.7783 119.14 17.0023 119.66C17.2263 120.172 17.5303 120.568 17.9143 120.848C18.2983 121.12 18.7383 121.256 19.2343 121.256Z" fill="#768396"/>
<path d="M1.716 177V169.728L0.36 170.028V169.332L2.052 168.6H2.736V177H1.716ZM7.78509 177.144C7.04109 177.144 6.39709 176.964 5.85309 176.604C5.31709 176.236 4.90509 175.728 4.61709 175.08C4.32909 174.424 4.18509 173.664 4.18509 172.8C4.18509 171.936 4.32909 171.18 4.61709 170.532C4.90509 169.876 5.31709 169.368 5.85309 169.008C6.39709 168.64 7.04109 168.456 7.78509 168.456C8.52909 168.456 9.16909 168.64 9.70509 169.008C10.2411 169.368 10.6531 169.876 10.9411 170.532C11.2291 171.18 11.3731 171.936 11.3731 172.8C11.3731 173.664 11.2291 174.424 10.9411 175.08C10.6531 175.728 10.2411 176.236 9.70509 176.604C9.16909 176.964 8.52909 177.144 7.78509 177.144ZM7.78509 176.256C8.27309 176.256 8.70909 176.12 9.09309 175.848C9.48509 175.568 9.78909 175.172 10.0051 174.66C10.2291 174.14 10.3411 173.52 10.3411 172.8C10.3411 172.08 10.2291 171.464 10.0051 170.952C9.78909 170.44 9.48509 170.048 9.09309 169.776C8.70909 169.496 8.27309 169.356 7.78509 169.356C7.28909 169.356 6.84909 169.496 6.46509 169.776C6.08109 170.048 5.77709 170.44 5.55309 170.952C5.32909 171.464 5.21709 172.08 5.21709 172.8C5.21709 173.52 5.32909 174.14 5.55309 174.66C5.77709 175.172 6.08109 175.568 6.46509 175.848C6.84909 176.12 7.28909 176.256 7.78509 176.256ZM16.1054 177.144C15.3614 177.144 14.7174 176.964 14.1734 176.604C13.6374 176.236 13.2254 175.728 12.9374 175.08C12.6494 174.424 12.5054 173.664 12.5054 172.8C12.5054 171.936 12.6494 171.18 12.9374 170.532C13.2254 169.876 13.6374 169.368 14.1734 169.008C14.7174 168.64 15.3614 168.456 16.1054 168.456C16.8494 168.456 17.4894 168.64 18.0254 169.008C18.5614 169.368 18.9734 169.876 19.2614 170.532C19.5494 171.18 19.6934 171.936 19.6934 172.8C19.6934 173.664 19.5494 174.424 19.2614 175.08C18.9734 175.728 18.5614 176.236 18.0254 176.604C17.4894 176.964 16.8494 177.144 16.1054 177.144ZM16.1054 176.256C16.5934 176.256 17.0294 176.12 17.4134 175.848C17.8054 175.568 18.1094 175.172 18.3254 174.66C18.5494 174.14 18.6614 173.52 18.6614 172.8C18.6614 172.08 18.5494 171.464 18.3254 170.952C18.1094 170.44 17.8054 170.048 17.4134 169.776C17.0294 169.496 16.5934 169.356 16.1054 169.356C15.6094 169.356 15.1694 169.496 14.7854 169.776C14.4014 170.048 14.0974 170.44 13.8734 170.952C13.6494 171.464 13.5374 172.08 13.5374 172.8C13.5374 173.52 13.6494 174.14 13.8734 174.66C14.0974 175.172 14.4014 175.568 14.7854 175.848C15.1694 176.12 15.6094 176.256 16.1054 176.256Z" fill="#768396"/>
<path d="M4.164 232.144C3.42 232.144 2.776 231.964 2.232 231.604C1.696 231.236 1.284 230.728 0.996 230.08C0.708 229.424 0.564 228.664 0.564 227.8C0.564 226.936 0.708 226.18 0.996 225.532C1.284 224.876 1.696 224.368 2.232 224.008C2.776 223.64 3.42 223.456 4.164 223.456C4.908 223.456 5.548 223.64 6.084 224.008C6.62 224.368 7.032 224.876 7.32 225.532C7.608 226.18 7.752 226.936 7.752 227.8C7.752 228.664 7.608 229.424 7.32 230.08C7.032 230.728 6.62 231.236 6.084 231.604C5.548 231.964 4.908 232.144 4.164 232.144ZM4.164 231.256C4.652 231.256 5.088 231.12 5.472 230.848C5.864 230.568 6.168 230.172 6.384 229.66C6.608 229.14 6.72 228.52 6.72 227.8C6.72 227.08 6.608 226.464 6.384 225.952C6.168 225.44 5.864 225.048 5.472 224.776C5.088 224.496 4.652 224.356 4.164 224.356C3.668 224.356 3.228 224.496 2.844 224.776C2.46 225.048 2.156 225.44 1.932 225.952C1.708 226.464 1.596 227.08 1.596 227.8C1.596 228.52 1.708 229.14 1.932 229.66C2.156 230.172 2.46 230.568 2.844 230.848C3.228 231.12 3.668 231.256 4.164 231.256Z" fill="#768396"/>
</svg>
